<?xml version="1.0" encoding="UTF-8"?>
<svg id="Layer_1" data-name="Layer 1" xmlns="http://www.w3.org/2000/svg" viewBox="0 0 1922.04 247.25">
  <defs>
    <style>
      .cls-1 {
        fill: #f8715c;
      }
    </style>
  </defs>
  <path class="cls-1" d="M391.58,28.34c0-3.87-3.14-7.02-7.02-7.02s-7.02,3.14-7.02,7.02,3.14,7.02,7.02,7.02,7.02-3.14,7.02-7.02Z"/>
  <path class="cls-1" d="M444.92,76.94c-5.14-12.07-11.76-23-19.85-32.8-5.33-7.04-6.23-14.76-2.7-23.15,4.19-7.2,9.68-11.22,16.49-12.09h0s.02,0,.04,0l.16-8.07c-28.4-.61-48.13,2.56-65.04,10.99-16.88,8.43-30.67,21.97-47.28,42.15l-46.42,56.41c-1.51-11.98-4.45-23.14-8.81-33.45-5.14-12.07-11.76-23-19.86-32.8-5.33-7.03-6.23-14.76-2.7-23.15,4.19-7.19,9.69-11.22,16.49-12.08h0s.03,0,.04,0l.15-8.07c-28.4-.61-48.13,2.56-65.03,10.99-16.88,8.43-30.68,21.97-47.29,42.16L0,238.55H0v8.66H83.88v-8.65H10.49L159.56,59.1c15.88-19.3,28.95-32.19,44.65-40.03,10.45-5.21,22.26-8.21,36.93-9.49-.52,.37-1.14,.69-1.61,1.09-16.13,14.35-15.93,33.78-9.2,52.96,11.83,37.15,11.79,84.23-1.36,120.73,34.85-41.73,69.29-83.07,104.01-125.26,15.88-19.3,28.96-32.19,44.66-40.03,10.45-5.22,22.26-8.21,36.93-9.49-.52,.38-1.14,.69-1.62,1.09-16.13,14.35-15.93,33.78-9.2,52.96,12.96,40.71,11.76,92.22-5.56,131.14-15.82,27.97-40.77,42.56-74.85,43.77h-41.76v8.65h41.76v-.05c14.72,.54,29.89-1.31,45.48-5.55,30-8.74,53.54-26.64,70.65-53.69,11.93-20.21,16.9-43.96,14.93-71.26-1.19-14.38-4.35-27.62-9.48-39.72Z"/>
  <path class="cls-1" d="M710.35,32.97C683.79,10.99,659.08,0,619.24,0s-63.8,10.99-90.36,33.31c-26.55,22.32-39.84,51.85-39.84,88.6s13.28,68.33,39.1,91c26.18,23.01,50.9,34.34,91.47,34.34s66.75-11.33,92.58-34.34c25.44-22.66,38.35-52.53,38.35-89.62s-13.28-68.33-40.2-90.31Zm-23.98,176.5c-16.6,19.23-35.04,28.84-64.17,28.84-32.83,0-48.69-9.61-65.29-28.84-16.23-19.23-24.34-47.73-24.34-86.19s8.11-66.27,24.34-85.5c16.6-19.23,31.72-28.84,62.33-28.84s50.9,9.61,67.5,29.53c16.59,19.57,20.28,48.07,20.28,85.16s-4.06,66.61-20.65,85.84Z"/>
  <path class="cls-1" d="M1701.13,185.78c0,10.98-1.47,19.92-5.53,27.12-3.69,7.21-10.7,13.4-21.39,18.21-10.7,5.14-22.49,7.55-35.41,7.55-25.82,0-47.2-8.92-64.17-26.44-17.34-17.85-26.19-47.73-26.19-89.96s9.22-72.11,26.93-88.6c18.07-16.82,38.73-25.07,63.07-25.07s42.79,7.21,59.01,21.64c4.8,3.77,8.86,8.58,12.54,13.39l8.48-8.25v-1.03c-21.76-23.01-50.16-34.34-84.09-34.34-39.47,0-70.82,12.7-94.05,38.46-23.24,25.76-34.67,55.63-34.67,89.62s12.17,63.19,36.15,85.5c24.34,22.32,54.96,33.66,91.47,33.66,18.44,0,37.99-3.78,59.75-11.33,7-2.41,17.33-9.61,26.18-16.82,12.17-9.27,18.82-23.35,18.82-38.12v-51.19h-36.89v56Z"/>
  <polygon class="cls-1" points="1461.68 187.84 1310.83 0 1270.99 0 1270.99 241.07 1279.48 241.07 1279.48 19.58 1465.74 247.24 1472.75 247.24 1472.75 0 1461.68 0 1461.68 187.84"/>
  <polygon class="cls-1" points="1922.04 8.25 1922.04 0 1767.14 0 1767.14 247.24 1921.31 247.24 1921.31 238.66 1839.8 238.66 1805.13 238.66 1805.13 129.77 1881.84 129.77 1881.84 121.19 1805.13 121.19 1805.13 8.25 1922.04 8.25"/>
  <path class="cls-1" d="M881.19,125.34c24.34-3.08,42.78-12.02,55.69-23.35,12.54-10.98,18.82-25.06,18.82-40.86,0-13.73-4.8-25.41-14.39-35.37-9.59-9.62-22.49-15.8-37.98-19.92-15.49-4.47-35.78-5.84-60.86-5.84h-57.91V247.24h37.62v-117.44h11.43c71.92,0,111.01,106.11,113.97,117.44h30.24c-24.34-55.29-43.9-80.01-43.9-80.01-24.34-30.56-42.04-37.09-52.74-41.9Zm-28.04-3.77h-30.98V10.31h16.6c30.61,0,51.63,3.43,60.86,13.73,9.22,10.31,13.65,23.36,13.65,40.52,0,9.62-1.1,17.51-4.05,24.38-2.59,6.52-6.27,12.02-11.07,16.14-4.42,4.12-10.7,8.92-18.44,10.98-7.37,2.06-16.22,5.5-26.55,5.5Z"/>
  <path class="cls-1" d="M1116.17,0l-109.91,247.24h14.02l48.93-117.35,74.58,.22,31.4,71.8s5.9,13.39,19.92,45.33h41.67L1123.91,0h-7.75Zm-44.38,121.65l33.69-77.01,34.98,77.24-68.67-.23Z"/>
  <path class="cls-1" d="M210.34,21.32c-3.88,0-7.02,3.14-7.02,7.02s3.14,7.02,7.02,7.02,7.02-3.14,7.02-7.02-3.14-7.02-7.02-7.02Z"/>
</svg>